<?xml version="1.0" encoding="UTF-8"?>
<svg version="1.1" viewBox="0 0 1024 988" width="1024" height="988" xmlns="http://www.w3.org/2000/svg">
<path transform="translate(0)" d="m0 0h1024v988h-1024z" fill="#FCFCFC"/>
<path transform="translate(534,106)" d="m0 0h9l8 3 6 5 2 5v3l11 3v2l5 1 14 6v2l6 2 17 10 19 13 7 10 2 10v9l4 2 6 7 6 12 3 9 4 15 1 7v13l-4 11-9 10-9 7-5 2 8 16 9 17 3 6 5 9 7 11 7 10 8 10 4 4v2l4 2 12 11 1 2v6h-2l-2 4-4 2h-8l11 15 10 11v10l-4 4-3 1-11 1 8 36 7 24 5 14 10 24 9 17 6 12 7 10 5 9 8 13 7 12 3 7 7 14 8 23v2l5-5 10-14 8-14 3-6 5-5 4-2 7 1 4 4 4 20 1 9v21l7-3 1 4v14l-3 19-6 18-7 13-9 11-5 3h-2v3l6 2 1 4-10 6-14 5h-5v2h-13l-1 5-9 17-13 19h-2l-2 4-5 5-8 9-3 8h-2l-1 5-9 17-9 12-9 11h-2v2l-7 5-3 3-17 12-21 12-14 5h-13l-4-4v-2l-3-1v-2h-19l-8-3-3-2v-2h-2v-10l4-8 11-13 7-6 1-2h-40l-27-3-26-5-27-8-10-4-3-1v-2l-6-1-7-4-4 1-25 11-11 6-3 12-6 8-6 5-8 3h-13l-8-2-17-5-10-4-14-5-17-5-32-8-26-5-5-2-4-3-1-9 1-3h2l-1-4-2-1 1-9 7-8 10-5 4-6 9-5 11-2h24l19 3-3-13-1-8v-22l3-16 4-13 10-19 8-10 4-2-2-21-1-1v-40h-4v-2l-8-1-10-4-10-6-6-4-6-6-16-1-39-6-9-3-6-5h-10l-7-3-6-4-7-8-11-17-5-16v-13l3-9 5-8 4-4-4-8-2-9h-2l-5-13-1-5h-2l-4-12v-11l4-6 3-3 4-1h17l37 5 10 6 5 6 5 13 5 11 6 16 3 5v2l20 10 13 4h20l16-4 5-1v-2h-17l-12-2-18-7-12-8-10-9-9-10-9-15-8-17-10-30-6-27-2-18v-20l3-16 4-12 10-16 11-13 13-13 14-11 14-10 15-9 3-3-7-1-16-6-9-6-5-6-3-3-5-10-1-5v-10l4-12 4-6 9-7 13-4 6-1h39l40 4 3-9 2-7h2l1-5 5-12 7-12 5-6 11-7 15-3 13-1h22l25 2 8 1v-2z" fill="#D578EC"/>
<path transform="translate(534,106)" d="m0 0h9l8 3 6 5 2 5v3l11 3v2l5 1 14 6v2l6 2 17 10 19 13 7 10 2 10v9l4 2 6 7 6 12 3 9 4 15 1 7v13l-4 11-9 10-9 7-5 2 8 16 9 17 3 6 5 9 7 11 7 10 8 10 4 4v2l4 2 12 11 1 2v6h-2l-2 4-4 2h-8l11 15 10 11v10l-4 4-3 1-11 1 8 36 7 24 5 14 10 24 9 17 6 12 7 10 5 9 8 13 7 12 3 7 7 14 8 23v2l5-5 10-14 8-14 3-6 5-5 4-2 7 1 4 4 4 20 1 9v21l7-3 1 4v14l-3 19-6 18-7 13-9 11-5 3h-2v3l6 2 1 4-10 6-14 5h-5v2h-13l-1 5-9 17-13 19h-2l-2 4-5 5-8 9-3 8h-2l-1 5-9 17-9 12-9 11h-2v2l-7 5-3 3-17 12-21 12-14 5h-13l-4-4v-2l-3-1v-2h-19l-8-3-3-2v-2h-2v-10l4-8 11-13 7-6 1-2h-40l-27-3-26-5-27-8-10-4-3-1v-2l-6-1-7-4-4 1-25 11-11 6-3 12-6 8-6 5-8 3h-13l-8-2-17-5-10-4-14-5-17-5-32-8-26-5-5-2-4-3-1-9 1-3h2l-1-4-2-1 1-9 7-8 10-5 4-6 9-5 11-2h24l19 3-3-13-1-8v-22l3-16 4-13 10-19 8-10 4-2-2-21-1-1v-40h-4v-2l-8-1-10-4-10-6-6-4-6-6-16-1-39-6-9-3-6-5h-10l-7-3-6-4-7-8-11-17-5-16v-13l3-9 5-8 4-4-4-8-2-9h-2l-5-13-1-5h-2l-4-12v-11l4-6 3-3 4-1h17l37 5 10 6 5 6 5 13 5 11 6 16 3 5v2l20 10 13 4h20l16-4 5-1v-2h-17l-12-2-18-7-12-8-10-9-9-10-9-15-8-17-10-30-6-27-2-18v-20l3-16 4-12 10-16 11-13 13-13 14-11 14-10 15-9 3-3-7-1-16-6-9-6-5-6-3-3-5-10-1-5v-10l4-12 4-6 9-7 13-4 6-1h39l40 4 3-9 2-7h2l1-5 5-12 7-12 5-6 11-7 15-3 13-1h22l25 2 8 1v-2zm86 90-12 5-13 9-11 10-8 10-12 20-1-12-1-1-14 1-30 3-1 2 12 6 7 7-4-1-10-5-10-2h-11l-13 3-13 7 7-9 10-6v-1l-29-3-15-4-15-6-14-8h-4v3l-29 12-16 8-21 11-18 11-18 13-12 10v2l-4 2-11 11-10 14-7 14-1 5 10 8 6 9 2 6-1 4-7 1-7-4-3-4h-2v13l3 22 6 24 8 23 6 14 8 9h9l8-4-8-24-3-13-2-21v-19l2 4 9 44 5 16 5 10 6 5 11 5 16 3h11l14-3 16-8 15-15-7 14-8 8-10 6-13 4-5 1h-18l-13-3-14-7-5-1-8 4-7 1 1 4 9 8 13 8 15 5 11 2h23l25-2h57l16 1h45l23-3-22 6-12 2-45 3-24 7-26 9-19 9-3 6-8 33-6 37-2 24v33l3 27 5 23 7 21 9 19 9 14 9 12 9 10 13 13 16 12 23 13 19 8 23 7 25 5 18 2 29 1-1-4-7-8-10-16-7-16-4-14-1-6v-21l4-14 3-6-1 8v17l3 18 8 21 9 15 12 14 14 11 16 8 13 4h19l16-4-8 7-12 6-7 2h-18l-10-1-10 8-11 11-3 6 2 2 16-2 15-6 12-6 1 1-10 9-6 9 2 4 7-1 19-9 16-10 16-13 16-16 9-14 8-15 7-14 7-10 13-17 9-16 7-15 5-15 4-22v-32l-3-19-5-17-8-19-8-16-12-21-17-28-13-25-10-25-8-25-7-29-8-40 14 3h6l-6-8-9-11-11-18-4-7 17 4h4l-2-4-13-13-12-17-15-25-15-29-5-10h-5v-2l-9-3h-7l-4 2 3-9v-10h-4l-8 6 4-21 5-13 6-10 8-8 12-6h11l1 5h2l2 11 2-2 3 5 4 15v8l2-2v-19l-4-14-9-17-6-5-5-2z" fill="#010102"/>
<path transform="translate(345,300)" d="m0 0 8 2 11 6 10 8 7 7 6 10 4 12 6 36 5 22 2 13v23l-2 9 2 1-8 8-16 8-14 3h-11l-16-3-14-7-5-6-6-15-8-36-4-20h-1v19l2 21 6 23 5 12-1 3-7 3h-9l-8-9-10-25-6-19-5-22-2-17v-13h2l4 5 6 3 7-1 1-5-5-10-6-7-7-5 3-10 3-5 2 3 15-4 8-1h17l19 2 8 1v-10l1-4z" fill="#9F5BAD"/>
<path transform="translate(466,119)" d="m0 0h35l25 3 11 3 3 4v-3l5 2 7 1 20 8 8 7v-2l5 1 9 5v2l6 2 15 9 10 9 4 8v7l-14 2-14 6-5 3-1-1-3 5-10 9-8 11-6 10-3 1-21-11-10-6 1-10-2 8-5-1-23-10-26-10-42-12-20-5 2-9 8-19 6-11 9-10 10-4z" fill="#B64ED6"/>
<path transform="translate(365,706)" d="m0 0 2 1 5 19 8 20 9 17 10 15 9 11 9 10 8 8 11 9 11 8v2l-20 8-12 7-5 6-2 11-3 5-7 4-9 1-14-4-24-9-30-9-37-8-18-3v-2l8-3 5-1 16-1-13-4-18-3 1-4 4-3 13-4 7-1 18-1-3-2-12-2v-2h24l25 5 26 8h3l-12-11-3-3-4-10-4-16v-26l4-17 5-12 7-12z" fill="#B44DD3"/>
<path transform="translate(767,660)" d="m0 0 2 4 3 14 1 8v32l-4 22-5 15-11 23-8 12-11 14-8 13-14 27-9 13-18 18-16 12-17 10-15 7-7 1-2-4 6-9 7-7 4-3-6 2-17 8-11 3-11 1-2-3 6-8 11-11 7-5 10 1h18l14-5 11-8 2-2-16 4h-19l-13-4-16-8-14-11-9-10-9-14-6-12-5-14-3-18v-17h1l1 12 6 14 13 17 5 5v2h2v2h2v2l4 2 13 9 13 5 15 3h11l14-3 12-5 13-8h2v-2l9-7 4-4h2l2-4 7-8h2l2-4 10-14 12-20 8-17 6-17 4-14 4-29 1-2z" fill="#B44CD4"/>
<path transform="translate(571,565)" d="m0 0h1l3 25 4 15 6 17 14 33 2 7h3l1-4 6-6 10-5 12-3h15l10 2 7 4 4-14 7-34 2-14 1-14 2 1 2 10 1 10v17l-2 19-2 13v17l4 11 6 8 10 8v2h2l6 8v9l-4 5-7 3-5 1 3 7v9l-5 5-6 2h-8l-15-3v14l-3 6-6 3-9-1-11-8-11-14-11-20-13-31-11-30-10-25-5-17-2-12v-27z" fill="#9D59AC"/>
<path transform="translate(200,451)" d="m0 0 12 1 32 4 10 3 6 9 13 30 11 26 8 21 12 29 7 17-1 5-5 1-42-7-9-3 1-4 3-4 4 2 4 4 2 1h7l3-3 1-7-3-6-4-3-10-1-4-6-6-3 1-5v-9l-4-7-6-3-4-1v-14l-3-5-7-3-9-1-5-10-11-26-6-14v-6z" fill="#8D878F"/>
<path transform="translate(559,763)" d="m0 0h1l1 21 4 17 6 15 6 11 10 14 4 4v3l-29-1-24-3-23-5-24-8-18-8-19-11-13-10-10-9-13-13-5-7 2-1 6 3 3 3 12 7 3 1v2l5 1 17 6 16 3h23l16-3 13-4 19-10 8-5h2z" fill="#B44CD4"/>
<path transform="translate(571,565)" d="m0 0h1l3 25 4 15 6 17 14 33 13 32 11 26 8 15 11 14 7 4v-13l-3-16 6 2 12 5 8 2 11 1-5-9-9-13-2-5 17 4h12l-3-5-10-8-8-9-6-12-2-8v-14l6-31 4-21 2-22 2 1 2 10 1 10v17l-2 19-2 13v17l4 11 6 8 10 8v2h2l6 8v9l-4 5-7 3-5 1 3 7v9l-5 5-6 2h-8l-15-3v14l-3 6-6 3-9-1-11-8-11-14-11-20-13-31-11-30-10-25-5-17-2-12v-27z" fill="#010102"/>
<path transform="translate(545,128)" d="m0 0 7 1 20 8 8 7v-2l5 1 9 5v2l6 2 15 9 10 9 4 8v7l-14 2-14 6-5 3-1-1-3 5-10 9-8 11-6 10-3 1-5-4-16-9 1-12 5-38v-31h-2z" fill="#B74DD6"/>
<path transform="translate(351,175)" d="m0 0h10l36 4 28 5 32 8 41 14 25 11 16 8 9 5v1l-18 2-16 1h-39l-18-3-20-7-15-8-17-11-16-10-16-9-21-9z" fill="#B44CD4"/>
<path transform="translate(296,520)" d="m0 0 6 1 10 4 12 3 7 1h15l15-3 15-5h3l-4 17-6 27-5 28-3 20-7-1-16-7-9-7-7-7-2-11-11-27-12-30z" fill="#D175E8"/>
<path transform="translate(365,706)" d="m0 0 2 1 5 19 8 20 9 17 10 15 8 10v17l-6 8-9 3-12-1-6-2-7-1-11-9-4-8-4-15-1-5v-26l4-17 5-12 7-12z" fill="#D276E9"/>
<path transform="translate(500,266)" d="m0 0h15l10 4 7 6 6 10 2 12-2 11-6 9-8 7-12 4h-14l-12-3-12-7-4-5v-14l3-10 6-11 9-8 8-4z" fill="#020103"/>
<path transform="translate(267,815)" d="m0 0 2 1-3 3h33l30 3 20 4 26 8 16 8 3 3 9 5 3 3 3-9 4-4 2 1-5 6-2 11-3 5-7 4-9 1-14-4-24-9-30-9-37-8-18-3v-2l8-3 5-1 16-1-13-4-18-3 1-4z" fill="#752E8D"/>
<path transform="translate(624,212)" d="m0 0h9l3 3v3h2l3 8 4 4 5 17v6l1-13h1l1 9-3 9-6 8-7 6-13 6-6 2-10 1-8 3h-2l2-9v-10l-5 2-7 5 2-13 4-15 8-16 10-10z" fill="#844098"/>
<path transform="translate(815,629)" d="m0 0h2l2 12 1 11v15l-2 15-6 18 10-6 4-2-2 10-5 12-5 6-12 7 8 4-3 3-17 8 5 5v4l-12 3h-4l2-9 4-16 2-14v-27l-2-19 7-6 11-14 8-13 2-1z" fill="#CB71E2"/>
<path transform="translate(610,285)" d="m0 0h8v2h5l16 32 12 21 11 17 10 13 13 13v2l-8-1-13-3 11 19 12 16 7 8v1l-11-1-9-2 9 45 8 31 6 18v4l-3-1-12-36-7-24-8-31-5-18 1-2 5 3-15-28-11-20 3-1 8 4-4-7-8-13-17-32-11-24z" fill="#E8AAEA"/>
<path transform="translate(450,134)" d="m0 0h15l24 5 3 3v11l-5 23-4 5-2 1h-8l-28-7-4-4v-10l6-23z" fill="#FCF8FC"/>
<path transform="translate(538,493)" d="m0 0 2 1-4 1 1 3-21 6-46 9-25 7-20 8-17 9-8 5-5 9-8 24-2 7h-1v-14l-3 16h-1l1-11 7-32 4-12 16-8 18-7 28-9 8-2 45-3 20-4z" fill="#AF4BCD"/>
<path transform="translate(296,520)" d="m0 0 6 1 10 4 12 3 7 1h22v1l-14 2-4 7-3 11v17l5 19 8 16 6 7-2 1-14-7-10-9-3-3-2-11-11-27-12-30z" fill="#B44DD3"/>
<path transform="translate(292,802)" d="m0 0h24l25 5 26 8h3l-2-3 4 2 1 3h2v2l-3 1 3 5 2 5 7 7 3 1-1 2-17-7-24-7-23-4-23-2h-34l4-6 13-4 7-1 18-1-3-2-12-2z" fill="#9C58AB"/>
<path transform="translate(415,221)" d="m0 0 6 1 16 9 21 7 12 2 22 2-4 3-9 7-4 6v3h-3l1-4h-9l-25-5-42-11-5-2 1-4-2-1 24-10z" fill="#B24CD1"/>
<path transform="translate(222,516)" d="m0 0h6l5 4-1 7-10 16 4-1 6-2h11l4 4-1 8-9 12h14l4 3v5l-5 6-6 3-9-1-8-6-8-10-8-14-3-9v-12l5-9z" fill="#9C57AA"/>
<path transform="translate(677,855)" d="m0 0v3l-6 7-8 5h-3v2h-2v2l-3 3-1 5 2 3 5 1 6-3 3-3h7l-5 5-13 8-17 9-8 3-5-1-1-3 6-9 7-7 4-3-6 2-17 8-11 3-11 1-2-3 6-8 11-11 7-5 10 1h18l14-5 11-8z" fill="#9954A8"/>
<path transform="translate(317,296)" d="m0 0 13 1 10 3h5l1 4-1 5-2 14 2 1-29-3h-17l-16 1-3-4 7-9 5-5 7-4 6-1 4-2z" fill="#BF9BC3"/>
<path transform="translate(580,142)" d="m0 0 5 1 9 5v2l6 2 15 9 10 9 4 8v7l-14 2-14 6-5 3-1-1-3 5-10 9-3 2 2-4 7-7 4-3v-24l-2-11-1-6-3-1-4-7z" fill="#B44DD3"/>
<path transform="translate(318,464)" d="m0 0 5 1 14 7 13 3h18l13-3 12-6h3l-2 5-13 9-11 5-16 4h-18l-13-5-4-1h-3l-11-9-2-2v-3l10-2z" fill="#9D58AC"/>
<path transform="translate(466,119)" d="m0 0h35l25 3 11 3 2 2v7l-19-4-36-4h-23l-10 3-6 4-6 8-7 14-7 18 3 1h-7l-3-1 1-8 8-19 6-11 9-10 10-4z" fill="#DF9CE4"/>
<path transform="translate(620,196)" d="m0 0h7l8 4 6 8 7 15 3 11v19l-2 2v-8l-5-17-2-3-2 2-2-11h-2l-1-5h-2l-4-4h-9l-11 4-15 11-10 9-10 10-8 12h-2l2-9 12-19 10-11 11-9 11-7z" fill="#ECACEF"/>
<path transform="translate(395,190)" d="m0 0 5 1 5 3 1 2 5 2 3 3 17 11 4 1v2l15 5 23 4 11 1h31l19-1 2-1 12 7v1l-18 2-16 1h-39l-18-3-20-7-15-8-1-2 5 2 8 4 3-1-12-7-6-1-9-9-12-8v-2h-3z" fill="#7F3995"/>
<path transform="translate(540,126)" d="m0 0 4 1v2h2l2 5v3h2l1 4v27l-6 45v5l17 9 1 2-6-2-14-8-9-5 1-10-2 8-3-1h2l2-13 7-43z" fill="#6D2C83"/>
<path transform="translate(624,212)" d="m0 0h9l3 3 2 7v9l-3-4-4-4-2-1h-7l-6 4-7 9-8 16v2l5 3 3 6v9l-3 9-6 4h-2l2-9v-10l-5 2-7 5 2-13 4-15 8-16 10-10z" fill="#010102"/>
<path transform="translate(388,235)" d="m0 0h5v2l-19 11-13 8-11 7-30 20-10 8-14 10-9 9-6 8 2 3 3 2-12 3 2-8 8-11 9-10 6-6h2l2-4 15-12 21-14 23-13 16-8z" fill="#E3A6E6"/>
<path transform="translate(351,338)" d="m0 0h7l2 1-1 10-5 9-8 7-4 2h-8l-4-3h-4l1-8 6-9 8-6z" fill="#010102"/>
<path transform="translate(206,445)" d="m0 0 16 1 28 4 10 4 4 5 9 21 14 35 15 37 10 23 3 8v6l-3-3-11-25-13-32-19-48-7-15-4-6-6-5-6-2-36-5-5-1z" fill="#A379AC"/>
<path transform="translate(252,464)" d="m0 0 4 4 8 17 20 50 14 33 5 15 1 10-3-3-18-44-20-50-11-30z" fill="#010102"/>
<path transform="translate(351,175)" d="m0 0h10l21 2-3 2 16 9v4h3l4 4 12 8 3 5 6 2 5 2 11 6-2 2-5-1-9-5-7-3-22-14-19-11-20-9-4-2z" fill="#A546C2"/>
<path transform="translate(497,275)" d="m0 0h16l9 5 7 8 1 3v16l-6 9-4 4-3-1 3-5 1-4v-11l-3-7-4-5-7-4-5-1h-8l-9 2 4-5z" fill="#E7DDE9"/>
<path transform="translate(538,286)" d="m0 0 2 2 2 14 1 5-3 10v3l-2 1-2 6h-3l-2 4-2 5-6 1-11-1-3-2v-2l-11 1-5-1-8-4-1-3 14 3h14l12-4 9-8 4-7 2-14z" fill="#B78EBD"/>
<path transform="translate(556,237)" d="m0 0h6l1 1 1 12v3l-2 1v-5l-28 2 3 3-1 2-7-7-12-6 1-2z" fill="#AA49C8"/>
<path transform="translate(448,122)" d="m0 0 3 1v3h5l-2 2-8 4-6 7-8 16-7 18 3 1h-7l-3-1 1-8 8-19 6-11 9-10z" fill="#CF77E4"/>
<path transform="translate(377,178)" d="m0 0h12l36 6 28 7v2h3v2h-8l-28-6-19-2-8 1-14-8z" fill="#D690DF"/>
<path transform="translate(540,126)" d="m0 0 4 1 2 5 2 10v23l-5 37-2 14-5-2 1-13 6-37 1-10v-16h-2z" fill="#B54DD4"/>
<path transform="translate(382,578)" d="m0 0h1v19l-4 34-1 34v9l-3-1-1-12v-33l2-24 3-20h2v-5z" fill="#D797DD"/>
<path transform="translate(583,144)" d="m0 0 6 1 5 3v2l6 2 15 9 10 9 4 8v6l-5-1-4-6-7-7-3-2v-2h-3v-2l-5-2-3-1-5-5-7-5-1-4h-2z" fill="#E09CE6"/>
<path transform="translate(441,218)" d="m0 0 9 2 23 4 11 1h31l19-1 2-1 7 4v1l-25 2h-36l-15-2-13-3v-2l-9-2z" fill="#5F2772"/>
<path transform="translate(639,225)" d="m0 0 5 3 4 11 2 8v6l1-13h1l1 9-3 9-6 8-2 2-4-1-1-1v-6l2-7z" fill="#B150CD"/>
<path transform="translate(277,509)" d="m0 0 2 3 11 28 21 51-1 5-5 1-5-1 3-1-1-12-5-15-14-33-6-15 1-5z" fill="#875E93"/>
<path transform="translate(450,143)" d="m0 0h6l9 16 7 8 6 4 1 3-2 3-5 1-8-6-11-16-5-9z" fill="#BB56D9"/>
<path transform="translate(296,520)" d="m0 0 6 1 10 4 12 3 7 1h22v1l-6 1h-33l-3 2-4-1 1 5 4 11 4 9 1 7-2 4-16-40z" fill="#944FA5"/>
<path transform="translate(815,629)" d="m0 0h2v11l-9 14-10 13-8 9-2 4-2-1-1-10 7-6 11-14 8-13 2-1z" fill="#E1A1E5"/>
<path transform="translate(501,248)" d="m0 0h11l12 3 12 6v1h-9l-8-1h-28l-11 1-4 1 3-3 12-6z" fill="#AF4BCD"/>
<path transform="translate(365,706)" d="m0 0 2 1 1 4v10h-2l-2 5-9 14-4 10-2 12h-1v-19l5-17 8-15z" fill="#E2A6E5"/>
<path transform="translate(545,128)" d="m0 0 7 1 20 8 8 7 2 2 1 5-6-2-20-9-6-2v-2h-2v-2h-2z" fill="#D57DE9"/>
<path transform="translate(271,388)" d="m0 0h2l5 21 7 20 10 23 5 7 3 2-8-1-6-7-6-14-3-12-6-19-3-12z" fill="#CA72DF"/>
<path transform="translate(492,287)" d="m0 0h6l5 4 1 7-5 6h-8l-4-4-1-7 4-5z" fill="#EAE1EC"/>
<path transform="translate(541,133)" d="m0 0h1v5h2l1 6v10l-3 22-3 18-2 5h-2l-1 11-1 2-3-1h2l2-13 7-43z" fill="#692B7D"/>
<path transform="translate(252,460)" d="m0 0 4 1 8 16 13 30 2 8-1 4v-2h-2l-14-34-8-17z" fill="#9D74A7"/>
<path transform="translate(463,141)" d="m0 0h6l5 4 6 9 1 7-3 3-6-1-1-2 1-2h2l-3-6-6-4-4-1v-5z" fill="#BD5AD9"/>
<path transform="translate(580,142)" d="m0 0 5 1-1 4h2l5 8v4h2l2 5 1 6 1 23 4-1-4 4-2-1-3 5-10 9-3 2 2-4 7-7 4-3v-24l-2-11-1-6-3-1-4-7z" fill="#78318F"/>
<path transform="translate(465,228)" d="m0 0 17 1h36l11-1h14v2l-5 1-14 1h-53l-4-1v-2z" fill="#AD54C5"/>
<path transform="translate(266,569)" d="m0 0h6l4 4 1 2v6l-2 3h-7l-4-4-1-6z" fill="#DED1E1"/>
<path transform="translate(351,175)" d="m0 0h10l9 1v2l6 2 7 4 1 3-1 1h-6l-17-8-9-4z" fill="#E29EE8"/>
<path transform="translate(395,190)" d="m0 0 5 1 5 3 1 2 5 2 3 3 17 11 4 1v2l6 2-1 2-5-1-10-6-6-1-9-9-12-8v-2h-3z" fill="#5A276A"/>
<path transform="translate(267,815)" d="m0 0 2 1-3 3h33l4 4-2 7-2-1-3-2-7-3-12-2-13-1 1-4z" fill="#813C96"/>
<path transform="translate(266,357)" d="m0 0h2l2 16 2 10v13l6 22 5 15-1 3-9-27-5-22-2-17z" fill="#9851AB"/>
<path transform="translate(482,122)" d="m0 0h12l9 2 3 2h6v-2l10 1 1 2h-3l6 2v1l-13-1-29-3-23-1v-1h21z" fill="#D679ED"/>
<path transform="translate(543,228)" d="m0 0 5 2v1l-18 2-16 1h-39l-13-2v-1h62l19-1z" fill="#7A3491"/>
<path transform="translate(206,445)" d="m0 0 16 1 28 4 6 2v3l4 4-1 2-7-6-6-2-36-5-5-1z" fill="#876093"/>
<path transform="translate(253,453)" d="m0 0 7 1 4 5 9 21 2 5v5l-2 1-10-24-5-9z" fill="#A77FAF"/>
<path transform="translate(326,176)" d="m0 0h5v2l-13 5-10 7-6 8-1-4 3-6 5-6 8-4z" fill="#AB51C5"/>
<path transform="translate(545,128)" d="m0 0 7 1 20 8 5 4-1 3-14-7-8-3 1 4h-4v-2h-2v-2h-2z" fill="#D38FDB"/>
<path transform="translate(534,223)" d="m0 0 5 2 4 3-14 1-48-1v-1l39-1 1-1 13-1z" fill="#4F205F"/>
<path transform="translate(280,830)" d="m0 0h16l1 2-12 1v2l5 1v1l-11-1-13-1v-2l4-2z" fill="#833F97"/>
<path transform="translate(620,196)" d="m0 0h7l8 4 3 3-1 2-6-5-2-1h-11l-14 7-10 8-15 15v-3l9-10 11-9 11-7z" fill="#9F6BAC"/>
<path transform="translate(303,557)" d="m0 0 2 2 9 21 1 9-3-3-11-25 1-3z" fill="#9C73A6"/>
<path transform="translate(541,133)" d="m0 0h1v5h2l1 6v10l-3 22-2 2v-9l1-12z" fill="#4A1E59"/>
<path transform="translate(394,465)" d="m0 0 2 1-2 5-13 9-8 4-3-1 5-3 1-3 4-1v-2h4v-2h2v-2z" fill="#B04CCE"/>
<path transform="translate(271,388)" d="m0 0h2l5 21 4 12-1 4-2-1-6-20-2-8z" fill="#DC87ED"/>
<path transform="translate(501,248)" d="m0 0h11l6 1v2l3 1-2 1-7-1h-11l-15 3 1-2 3-1 1-2z" fill="#B25FC8"/>
<path transform="translate(537,195)" d="m0 0h1l-1 12-1 7 4 1 3-7 2 1v9l17 9 1 2-6-2-14-8-9-5 2-15z" fill="#732F8A"/>
<path transform="translate(508,307)" d="m0 0 6 1 1 7-3 2h-6l-2-2v-5z" fill="#E1D5E4"/>
<path transform="translate(699,530)" d="m0 0 4 2 12 25v2l-3-1-10-19z" fill="#D08FD7"/>
<path transform="translate(453,192)" d="m0 0 7 1 18 6v2l2 1-11-2-17-4 4-1v-2z" fill="#BD68D2"/>
<path transform="translate(305,583)" d="m0 0 3 1 3 7-1 5-5 1-5-1 3-1 1-11z" fill="#896C92"/>
<path transform="translate(610,163)" d="m0 0 5 2 3 2v2l4 2 4 8h-2l-1 2-7-8-3-4v-2z" fill="#D87EED"/>
<path transform="translate(388,182)" d="m0 0 11 1 16 3 5 1v1l-22-1-5 1-6-4z" fill="#D577EC"/>
<path transform="translate(295,819)" d="m0 0 6 1 2 4-2 6-2-1-3-2-7-3v-2l6-1z" fill="#844098"/>
<path transform="translate(370,177)" d="m0 0h12l-3 2 16 9v2h-4v-2l-5-1-16-9z" fill="#612B72"/>
<path transform="translate(221,461)" d="m0 0 5 2 2 5-1 3-4 1-4-3v-6z" fill="#010102"/>
<path transform="translate(417,210)" d="m0 0 10 2 12 7-2 2-5-1-14-8z" fill="#B64DD6"/>
<path transform="translate(636,263)" d="m0 0 1 3 4 2-4 4-6 3-8 1 4-3 5-5z" fill="#9854A8"/>
<path transform="translate(362,340)" d="m0 0h1l-1 10-4 8-6 7-5 2 1-3 6-5 1-4h3l2-9z" fill="#DC8EEA"/>
<path transform="translate(303,470)" d="m0 0 5 1 10 9 1 4-4-2-10-8z" fill="#AD76B9"/>
<path transform="translate(529,228)" d="m0 0h14v2l-5 1-18 1v-3z" fill="#B74ED7"/>
<path transform="translate(455,225)" d="m0 0 12 2v4h-10l-3-1z" fill="#863F9C"/>
<path transform="translate(271,501)" d="m0 0 4 2 2 4 2 8-1 4v-2h-2l-5-12z" fill="#A47DAC"/>
<path transform="translate(374,858)" d="m0 0h6l1 3 10 4v1l-9-1-13-5v-1z" fill="#854199"/>
<path transform="translate(285,538)" d="m0 0h4l5 11v3l-4-1-5-11z" fill="#865F92"/>
<path transform="translate(677,855)" d="m0 0v3l-6 7-8 5-6-1 2-2 10-5z" fill="#8F4AA1"/>
<path transform="translate(216,518)" d="m0 0h10l-10 5-4 6-2 9h-1v-7l3-10z" fill="#B788C0"/>
<path transform="translate(206,445)" d="m0 0 16 1 7 1-1 3-11-1-12-2z" fill="#824195"/>
<path transform="translate(309,182)" d="m0 0 2 1-3 4 5-2-6 7-5 6-1-4 3-6z" fill="#903BAB"/>
<path transform="translate(580,142)" d="m0 0 5 1-1 4h2l5 8 1 6-3-3v-2l-3-1-4-7z" fill="#522560"/>
<path transform="translate(436,135)" d="m0 0v3l-4 7-3 3-4 7-1-3 8-15z" fill="#BE73CD"/>
<path transform="translate(308,573)" d="m0 0h3l4 10v6l-3-3-4-9z" fill="#9B6CA6"/>
<path transform="translate(300,572)" d="m0 0h3l4 9v2l-2 1-1 5h-1l-3-13z" fill="#886493"/>
<path transform="translate(277,317)" d="m0 0 1 2 4 1 4 3-12 3 2-8z" fill="#D383E3"/>
<path transform="translate(268,475)" d="m0 0h3l4 10v5l-2 1-5-12z" fill="#A579AE"/>
<path transform="translate(541,157)" d="m0 0h1l-1 21-1 6-3 1 1-11z" fill="#6D2D82"/>
<path transform="translate(541,133)" d="m0 0h1v5h2l1 6v8l-3 1-1-7z" fill="#5C266E"/>
<path transform="translate(423,208)" d="m0 0 5 2 7 3v2l6 2-1 2-5-1-8-5z" fill="#3B1847"/>
<path transform="translate(275,488)" d="m0 0 3 4 3 10h-2l-1 2-4-11z" fill="#A075A9"/>
<path transform="translate(402,229)" d="m0 0 4 1-3 3-10 4v-2l-2-1z" fill="#C27AD0"/>
<path transform="translate(377,181)" d="m0 0 6 3 1 3-1 1h-6l-6-3 4-1z" fill="#C268DA"/>
<path transform="translate(583,144)" d="m0 0 6 1 3 3v3l3 2h-6l-3-4v-2h-2z" fill="#D485E4"/>
<path transform="translate(589,844)" d="m0 0 2 1v3l-29-1v-1h27z" fill="#843E98"/>
<path transform="translate(607,275)" d="m0 0 1 4 12-2 9-2-2 2-9 3-10 1-5 1 3-4z" fill="#7A3491"/>
<path transform="translate(512,124)" d="m0 0 10 1 1 2h-3l6 2v1l-13-1z" fill="#D87DED"/>
<path transform="translate(565,136)" d="m0 0 7 1 5 4-1 3-11-6z" fill="#D996E0"/>
<path transform="translate(326,176)" d="m0 0h5v2l-11 3-2-1-4-1z" fill="#853E9B"/>
<path transform="translate(282,528)" d="m0 0 4 2 2 5v3l-4-1-2-5z" fill="#8B6695"/>
<path transform="translate(537,126)" d="m0 0 2 1v7l-8-2 1-4h4z" fill="#CF77E5"/>
<path transform="translate(678,568)" d="m0 0h2l2 6v5l-2-4-1 13h-1z" fill="#88419D"/>
<path transform="translate(224,448)" d="m0 0h13l6 1v1l-5 1h-7l-7-2z" fill="#895C96"/>
<path transform="translate(543,228)" d="m0 0 5 2v1l-6 1h-18v-1l19-1z" fill="#7D3893"/>
<path transform="translate(453,192)" d="m0 0 7 1 3 1 1 3h-8l-4-2h4v-2z" fill="#C67BD4"/>
<path transform="translate(351,175)" d="m0 0h10l9 1v1l-10 1-3 1-6-3z" fill="#924EA5"/>
<path transform="translate(590,215)" d="m0 0 2 1-13 13v-3l9-10z" fill="#B579C0"/>
<path transform="translate(404,852)" d="m0 0 2 1 1 4-3 5-2-1 2-4h-2v-2l-2-1z" fill="#844098"/>
<path transform="translate(261,477)" d="m0 0h3l2 5v4l-3-1-2-4z" fill="#A27AAB"/>
<path transform="translate(637,218)" d="m0 0 2 3 1 15-3-1z" fill="#7F3995"/>
<path transform="translate(305,566)" d="m0 0h3l2 7h-2l-1 2-2-5z" fill="#A175AB"/>
<path transform="translate(269,379)" d="m0 0h2l1 9-2 3-1-3z" fill="#CA8ED5"/>
<path transform="translate(305,187)" d="m0 0v3h2l-2 4-4 4 1-7z" fill="#7B3591"/>
<path transform="translate(430,145)" d="m0 0 1 2-6 13-2-1 3-7z" fill="#F2B0F4"/>
<path transform="translate(540,126)" d="m0 0 4 1 1 2v7l-2-1-1-6h-2z" fill="#B562CA"/>
</svg>
